<?xml version="1.0" encoding="iso-8859-1"?>
<!-- Generator: Adobe Illustrator 16.0.0, SVG Export Plug-In . SVG Version: 6.00 Build 0)  -->
<!DOCTYPE svg PUBLIC "-//W3C//DTD SVG 1.1//EN" "http://www.w3.org/Graphics/SVG/1.1/DTD/svg11.dtd">
<svg version="1.1" id="Capa_1" xmlns="http://www.w3.org/2000/svg" xmlns:xlink="http://www.w3.org/1999/xlink" x="0px" y="0px"
	 width="32.753px" height="32.754px" viewBox="0 0 32.753 32.754" style="enable-background:new 0 0 32.753 32.754;"
	 xml:space="preserve">
<g>
	<path d="M30.104,16.136c0-0.002,0-0.003,0-0.005c0-0.001,0-0.002,0-0.004c-0.001-4.979-4.054-9.028-9.031-9.028l0,0l0,0l0,0
		c-4.981,0-9.033,4.053-9.033,9.032l0,0l0,0c0,0,0,0,0,0.001c0,4.979,4.052,9.031,9.033,9.031l0,0l0,0l0,0
		C26.05,25.163,30.101,21.111,30.104,16.136z M21.073,24.204L21.073,24.204c-0.925,0-1.927-1.763-2.403-4.56
		c0.791,0.084,1.602,0.127,2.403,0.127s1.612-0.043,2.403-0.127C23,22.441,21.998,24.204,21.073,24.204z M21.073,18.814
		c-0.903,0-1.755-0.051-2.542-0.144c-0.091-0.786-0.143-1.637-0.143-2.541c0-0.903,0.052-1.755,0.143-2.541
		c0.787-0.092,1.639-0.144,2.542-0.144c0.904,0,1.755,0.052,2.542,0.144c0.092,0.786,0.143,1.638,0.143,2.541
		c0,0.904-0.051,1.755-0.143,2.541C22.828,18.764,21.977,18.814,21.073,18.814z M12.999,16.131c0-0.925,1.762-1.928,4.559-2.401
		c-0.083,0.789-0.127,1.601-0.127,2.401c0,0.803,0.044,1.612,0.127,2.401C14.761,18.061,12.999,17.057,12.999,16.131L12.999,16.131z
		 M21.073,8.058L21.073,8.058c0.925,0,1.927,1.762,2.403,4.559c-0.791-0.084-1.602-0.127-2.403-0.127s-1.612,0.043-2.403,0.127
		C19.146,9.819,20.148,8.058,21.073,8.058z M24.587,13.729c2.795,0.475,4.556,1.475,4.559,2.399c0,0,0,0.001,0,0.002
		s0,0.002,0,0.003c-0.003,0.926-1.766,1.926-4.559,2.398c0.084-0.789,0.127-1.6,0.127-2.401
		C24.714,15.33,24.671,14.519,24.587,13.729z M28.925,14.263c-1.035-0.725-2.658-1.236-4.467-1.518
		c-0.281-1.811-0.793-3.432-1.518-4.469C25.895,8.981,28.224,11.31,28.925,14.263z M19.205,8.276
		c-0.726,1.037-1.236,2.658-1.519,4.469c-1.81,0.281-3.431,0.793-4.467,1.519C13.922,11.31,16.251,8.981,19.205,8.276z
		 M13.219,17.999c1.036,0.726,2.657,1.235,4.467,1.519c0.282,1.812,0.793,3.432,1.519,4.469
		C16.251,23.28,13.922,20.952,13.219,17.999z M22.941,23.982c0.727-1.034,1.236-2.655,1.518-4.467
		c1.81-0.281,3.433-0.793,4.467-1.519C28.224,20.952,25.895,23.28,22.941,23.982z M21.073,26.604c-0.315,0-0.625-0.02-0.935-0.047
		v2.104H4.19V3.508h15.948v2.194c0.31-0.027,0.617-0.047,0.935-0.047c0.203,0,0.404,0.02,0.604,0.029V2.211
		C21.677,0.994,20.682,0,19.464,0H4.863C3.646,0,2.65,0.994,2.65,2.211v28.331c0,1.216,0.996,2.212,2.213,2.212h14.602
		c1.218,0,2.213-0.996,2.213-2.212v-3.969C21.478,26.585,21.276,26.604,21.073,26.604z M9.829,1.595h4.672
		c0.148,0,0.268,0.12,0.268,0.271c0,0.148-0.119,0.267-0.268,0.267H9.829c-0.148,0-0.268-0.118-0.268-0.267
		C9.561,1.715,9.681,1.595,9.829,1.595z M12.165,31.648c-0.611,0-1.105-0.496-1.105-1.105c0-0.611,0.494-1.104,1.105-1.104
		c0.611,0,1.107,0.492,1.107,1.104C13.273,31.152,12.776,31.648,12.165,31.648z"/>
</g>
<g>
</g>
<g>
</g>
<g>
</g>
<g>
</g>
<g>
</g>
<g>
</g>
<g>
</g>
<g>
</g>
<g>
</g>
<g>
</g>
<g>
</g>
<g>
</g>
<g>
</g>
<g>
</g>
<g>
</g>
</svg>
