<?xml version="1.0" encoding="iso-8859-1"?>
<!-- Generator: Adobe Illustrator 19.0.0, SVG Export Plug-In . SVG Version: 6.00 Build 0)  -->
<svg version="1.1" id="Capa_1" xmlns="http://www.w3.org/2000/svg" xmlns:xlink="http://www.w3.org/1999/xlink" x="0px" y="0px"
	 viewBox="0 0 512 512" style="enable-background:new 0 0 512 512;" xml:space="preserve">
<path style="fill:#0072A2;" d="M279.323,357.046h-38.986v93.539H63.827c-4.223,0-7.646,3.423-7.646,7.646v23.694
	c0,4.223,3.423,7.646,7.646,7.646h390.757c4.223,0,7.646-3.423,7.646-7.646v-23.694c0-4.223-3.423-7.646-7.646-7.646H279.323
	V357.046z"/>
<path style="fill:#006289;" d="M454.584,450.586h-26.589v38.985h26.589c4.223,0,7.646-3.423,7.646-7.646v-23.694
	C462.23,454.009,458.807,450.586,454.584,450.586z"/>
<path style="fill:#FF4D4A;" d="M253.804,0.775l-90.776,74.487V45.733h-55.624v75.171L42.65,174.038
	c-2.382,1.954-0.916,5.648,2.242,5.648h48.723v196.55c0,4.987,4.288,9.03,9.578,9.03h305.614c5.29,0,9.578-4.043,9.578-9.03v-196.55
	h48.723c3.157,0,4.623-3.694,2.242-5.648L258.194,0.775C256.936-0.258,255.062-0.258,253.804,0.775z"/>
<path style="fill:#E13F33;" d="M469.348,174.039L258.194,0.775c-1.259-1.033-3.132-1.033-4.391,0l-24.979,20.497l155.415,127.526
	v227.438c0,4.987-4.288,9.03-9.577,9.03h34.145c5.29,0,9.577-4.043,9.577-9.03v-196.55h48.723
	C470.264,179.687,471.73,175.993,469.348,174.039z"/>
<path style="fill:#F7F9F9;" d="M302.338,219.655h-86.266c-6.462,0-11.7,5.238-11.7,11.7v153.912h109.667V231.355
	C314.039,224.893,308.8,219.655,302.338,219.655z"/>
<path style="fill:#E4E4E4;" d="M302.338,219.655h-34.235c6.462,0,11.7,5.238,11.7,11.7v153.912h34.235V231.355
	C314.039,224.893,308.8,219.655,302.338,219.655z"/>
<path style="fill:#FFB427;" d="M294.539,512h-69.416c-9.49,0-17.182-7.693-17.182-17.182v-58.17c0-9.49,7.693-17.182,17.182-17.182
	h69.416c9.49,0,17.182,7.693,17.182,17.182v58.17C311.721,504.307,304.028,512,294.539,512z"/>
<path style="fill:#FF9D00;" d="M294.539,419.465h-17.052V512h17.052c9.49,0,17.182-7.693,17.182-17.182v-58.17
	C311.721,427.158,304.028,419.465,294.539,419.465z"/>
<path style="fill:#FFB427;" d="M171.123,24.608H97.089c-1.903,0-3.445,1.542-3.445,3.445V45.29c0,1.903,1.542,3.445,3.445,3.445
	h74.034c1.903,0,3.445-1.543,3.445-3.445V28.053C174.568,26.15,173.026,24.608,171.123,24.608z"/>
<path style="fill:#FF9D00;" d="M174.529,27.658c-0.198-1.714-1.638-3.05-3.406-3.05h-30.772v24.128h30.772
	c1.767,0,3.207-1.336,3.406-3.05V27.658z"/>
<g>
</g>
<g>
</g>
<g>
</g>
<g>
</g>
<g>
</g>
<g>
</g>
<g>
</g>
<g>
</g>
<g>
</g>
<g>
</g>
<g>
</g>
<g>
</g>
<g>
</g>
<g>
</g>
<g>
</g>
</svg>
