<?xml version="1.0" encoding="iso-8859-1"?>
<!-- Generator: Adobe Illustrator 19.0.0, SVG Export Plug-In . SVG Version: 6.00 Build 0)  -->
<svg version="1.1" id="Layer_1" xmlns="http://www.w3.org/2000/svg" xmlns:xlink="http://www.w3.org/1999/xlink" x="0px" y="0px"
	 viewBox="0 0 512 512" style="enable-background:new 0 0 512 512;" xml:space="preserve">
<path style="fill:#D1F4FF;" d="M488.727,232.727c-12.853,0-23.273,10.422-23.273,23.273H232.727
	c0-12.851-10.42-23.273-23.273-23.273c-12.853,0-23.273,10.422-23.273,23.273v93.091c0,48.232,81.821,69.818,162.909,69.818
	S512,397.323,512,349.091V256C512,243.149,501.58,232.727,488.727,232.727z"/>
<path style="fill:#A7E5FF;" d="M488.727,232.727c-12.853,0-23.273,10.422-23.273,23.273H349.091v162.909
	c81.088,0,162.909-21.586,162.909-69.818V256C512,243.149,501.58,232.727,488.727,232.727z"/>
<path style="fill:#408BAF;" d="M488.727,139.636c-12.853,0-23.273,10.422-23.273,23.273H232.727
	c0-12.851-10.42-23.273-23.273-23.273c-12.853,0-23.273,10.422-23.273,23.273V256c0,48.232,81.821,69.818,162.909,69.818
	S512,304.232,512,256v-93.091C512,150.058,501.58,139.636,488.727,139.636z"/>
<path style="fill:#387896;" d="M488.727,139.636c-12.853,0-23.273,10.422-23.273,23.273H349.091v162.909
	C430.179,325.818,512,304.232,512,256v-93.091C512,150.058,501.58,139.636,488.727,139.636z"/>
<path style="fill:#D1F4FF;" d="M488.727,46.545c-12.853,0-23.273,10.422-23.273,23.273H232.727c0-12.851-10.42-23.273-23.273-23.273
	c-12.853,0-23.273,10.422-23.273,23.273v93.091c0,48.23,81.821,69.818,162.909,69.818S512,211.139,512,162.909V69.818
	C512,56.967,501.58,46.545,488.727,46.545z"/>
<path style="fill:#408BAF;" d="M349.091,0c-81.088,0-162.909,21.589-162.909,69.818c0,48.23,81.821,69.818,162.909,69.818
	S512,118.049,512,69.818C512,21.589,430.179,0,349.091,0z"/>
<path style="fill:#A7E5FF;" d="M488.727,46.545c-12.853,0-23.273,10.422-23.273,23.273H349.091v162.909
	c81.088,0,162.909-21.588,162.909-69.818V69.818C512,56.967,501.58,46.545,488.727,46.545z"/>
<path style="fill:#387896;" d="M349.091,0v139.636c81.088,0,162.909-21.588,162.909-69.818C512,21.589,430.179,0,349.091,0z"/>
<path style="fill:#D1F4FF;" d="M302.545,325.818c-12.853,0-23.273,10.422-23.273,23.273H46.545c0-12.851-10.42-23.273-23.273-23.273
	S0,336.24,0,349.091v93.091C0,490.414,81.821,512,162.909,512s162.909-21.586,162.909-69.818v-93.091
	C325.818,336.24,315.398,325.818,302.545,325.818z"/>
<path style="fill:#A7E5FF;" d="M302.545,325.818c-12.853,0-23.273,10.422-23.273,23.273H162.909V512
	c81.088,0,162.909-21.586,162.909-69.818v-93.091C325.818,336.24,315.398,325.818,302.545,325.818z"/>
<path style="fill:#408BAF;" d="M302.545,232.727c-12.853,0-23.273,10.422-23.273,23.273H46.545c0-12.851-10.42-23.273-23.273-23.273
	S0,243.149,0,256v93.091c0,48.232,81.821,69.818,162.909,69.818s162.909-21.586,162.909-69.818V256
	C325.818,243.149,315.398,232.727,302.545,232.727z"/>
<path style="fill:#387896;" d="M302.545,232.727c-12.853,0-23.273,10.422-23.273,23.273H162.909v162.909
	c81.088,0,162.909-21.586,162.909-69.818V256C325.818,243.149,315.398,232.727,302.545,232.727z"/>
<path style="fill:#D1F4FF;" d="M302.545,139.636c-12.853,0-23.273,10.422-23.273,23.273H46.545c0-12.851-10.42-23.273-23.273-23.273
	S0,150.058,0,162.909V256c0,48.23,81.821,69.818,162.909,69.818S325.818,304.23,325.818,256v-93.091
	C325.818,150.058,315.398,139.636,302.545,139.636z"/>
<path style="fill:#408BAF;" d="M162.909,93.091C81.821,93.091,0,114.68,0,162.909c0,48.23,81.821,69.818,162.909,69.818
	s162.909-21.588,162.909-69.818C325.818,114.68,243.997,93.091,162.909,93.091z"/>
<path style="fill:#A7E5FF;" d="M302.545,139.636c-12.853,0-23.273,10.422-23.273,23.273H162.909v162.909
	c81.088,0,162.909-21.588,162.909-69.818v-93.091C325.818,150.058,315.398,139.636,302.545,139.636z"/>
<path style="fill:#387896;" d="M162.909,93.091v139.636c81.088,0,162.909-21.588,162.909-69.818
	C325.818,114.68,243.997,93.091,162.909,93.091z"/>
<g>
</g>
<g>
</g>
<g>
</g>
<g>
</g>
<g>
</g>
<g>
</g>
<g>
</g>
<g>
</g>
<g>
</g>
<g>
</g>
<g>
</g>
<g>
</g>
<g>
</g>
<g>
</g>
<g>
</g>
</svg>
