<?xml version="1.0" encoding="iso-8859-1"?>
<!-- Generator: Adobe Illustrator 19.0.0, SVG Export Plug-In . SVG Version: 6.00 Build 0)  -->
<svg version="1.1" id="Layer_1" xmlns="http://www.w3.org/2000/svg" xmlns:xlink="http://www.w3.org/1999/xlink" x="0px" y="0px"
	 viewBox="0 0 511.999 511.999" style="enable-background:new 0 0 511.999 511.999;" xml:space="preserve">
<path style="fill:#2C82C9;" d="M393.316,61.935c0,28.17-61.487,51.003-137.317,51.003c-75.845,0-137.317-22.834-137.317-51.003
	c0-28.17,61.471-51.003,137.317-51.003C331.829,10.932,393.316,33.765,393.316,61.935z"/>
<path style="fill:#45CCFF;" d="M393.316,61.935v321.98c0,28.17-61.487,51.003-137.317,51.003
	c-75.845,0-137.317-22.834-137.317-51.003V61.935c0,28.17,61.471,51.003,137.317,51.003
	C331.829,112.938,393.316,90.104,393.316,61.935z"/>
<g>
	<path style="fill:#231F20;" d="M299.639,264.24c-0.318,0.049-0.638,0.097-0.961,0.144c-5.976,0.86-10.124,6.4-9.264,12.377
		c0.785,5.448,5.459,9.376,10.807,9.376c0.518,0,1.043-0.037,1.571-0.114c0.412-0.059,0.82-0.12,1.225-0.184
		c5.964-0.932,10.044-6.524,9.111-12.488C311.196,267.386,305.606,263.305,299.639,264.24z"/>
	<path style="fill:#231F20;" d="M484.413,490.137H266.932v-44.458c33.851-0.96,65.467-6.351,89.969-15.452
		c39.133-14.535,47.348-33.207,47.348-46.313V61.935c0-13.106-8.215-31.778-47.348-46.313C329.776,5.548,293.942,0,256,0
		c-37.949,0-73.786,5.548-100.907,15.622c-39.128,14.533-47.341,33.207-47.341,46.313v321.98c0,13.106,8.213,31.779,47.341,46.313
		c24.5,9.101,56.119,14.491,89.975,15.452v44.456H27.586c-6.037,0-10.932,4.894-10.932,10.932s4.894,10.932,10.932,10.932h456.826
		c6.036,0,10.932-4.894,10.932-10.932S490.449,490.137,484.413,490.137z M382.384,226.715c0,8.017-13.24,20.12-42.821,29.081
		c-5.778,1.75-9.043,7.853-7.292,13.632c1.431,4.721,5.766,7.765,10.457,7.765c1.049,0,2.119-0.152,3.173-0.472
		c14.892-4.511,27.123-10.023,36.482-16.324v48.71c0,16.338-49.234,40.072-126.384,40.072s-126.385-23.732-126.385-40.072v-48.641
		c6.521,4.364,14.852,8.616,25.478,12.564c27.122,10.074,62.958,15.622,100.907,15.622c6.036,0,10.932-4.894,10.932-10.932
		s-4.895-10.932-10.932-10.932c-77.151,0-126.385-23.734-126.385-40.072v-48.641c6.521,4.364,14.852,8.616,25.478,12.564
		c27.122,10.073,62.958,15.622,100.907,15.622c37.943,0,73.776-5.548,100.9-15.622c10.63-3.947,18.962-8.202,25.485-12.566V226.715z
		 M382.384,144.325c0,16.338-49.234,40.072-126.384,40.072s-126.385-23.732-126.385-40.072V95.696
		c6.518,4.359,14.86,8.609,25.478,12.553c27.122,10.073,62.958,15.622,100.907,15.622c37.943,0,73.776-5.548,100.9-15.622
		c10.622-3.945,18.964-8.194,25.485-12.555v48.631H382.384z M256,21.863c77.151,0,126.384,23.733,126.384,40.072
		S333.149,102.007,256,102.007c-77.151,0-126.385-23.732-126.385-40.072S178.848,21.863,256,21.863z M129.614,383.915v-41.061
		c6.521,4.364,14.852,8.616,25.478,12.564c27.122,10.073,62.958,15.622,100.907,15.622c37.943,0,73.776-5.548,100.9-15.622
		c10.63-3.947,18.962-8.202,25.485-12.566v41.063c0,16.338-49.235,40.072-126.384,40.072
		C178.848,423.987,129.614,400.254,129.614,383.915z"/>
</g>
<g>
</g>
<g>
</g>
<g>
</g>
<g>
</g>
<g>
</g>
<g>
</g>
<g>
</g>
<g>
</g>
<g>
</g>
<g>
</g>
<g>
</g>
<g>
</g>
<g>
</g>
<g>
</g>
<g>
</g>
</svg>
