<?xml version="1.0" encoding="iso-8859-1"?>
<!-- Generator: Adobe Illustrator 19.0.0, SVG Export Plug-In . SVG Version: 6.00 Build 0)  -->
<svg version="1.1" id="Layer_1" xmlns="http://www.w3.org/2000/svg" xmlns:xlink="http://www.w3.org/1999/xlink" x="0px" y="0px"
	 viewBox="0 0 512 512" style="enable-background:new 0 0 512 512;" xml:space="preserve">
<path style="fill:#6F7D96;" d="M90,281.795v-150c0-19.773,30-19.854,30,0v150C120,301.568,90,301.649,90,281.795z"/>
<g>
	<path style="fill:#29CC96;" d="M257.999,163.895c-0.899,2.1-1.8,3.6-2.999,4.799c-9.901,11.1-31.5,0.3-24.901-16.199
		c12.9-32.1,12.9-69.3,0-101.4c-6.599-16.5,15-27.301,24.901-16.201c1.199,1.201,2.1,2.701,2.999,4.801
		C273.9,79.295,273.9,124.295,257.999,163.895z"/>
	<path style="fill:#29CC96;" d="M174.478,130.052c7.266-17.959,7.266-38.555,0-56.514c-7.435-18.378,20.362-29.626,27.803-11.25
		c10.166,25.122,10.166,53.921,0,79.014C194.837,159.747,167.018,148.49,174.478,130.052z"/>
</g>
<path style="fill:#42516D;" d="M105,146.795c-24.814,0-45-20.186-45-45s20.186-45,45-45s45,20.186,45,45
	S129.814,146.795,105,146.795z"/>
<g>
	<path style="fill:#25B987;" d="M257.999,163.895c-0.899,2.1-1.8,3.6-2.999,4.799V34.893c1.199,1.201,2.1,2.701,2.999,4.801
		C273.9,79.295,273.9,124.295,257.999,163.895z"/>
	<path style="fill:#25B987;" d="M290.601,172.947c18.9-46.8,18.9-100.201,0-147.001c-7.5-18.3,20.4-29.7,27.9-11.1
		c21.599,53.699,21.599,115.499,0,169.2C311,202.647,283.101,191.247,290.601,172.947z"/>
</g>
<path style="fill:#495A79;" d="M90,491.795v-30c0-19.773,30-19.854,30,0v30C120,511.568,90,511.649,90,491.795z"/>
<path style="fill:#42516D;" d="M392,491.795v-30c0-19.773,30-19.854,30,0v30C422,511.568,392,511.649,392,491.795z"/>
<path style="fill:#6F7D96;" d="M467,266.795h-30c-8.401,0-15,6.599-15,15v105H90v-105c0-8.401-6.599-15-15-15H45
	c-24.901,0-45,20.099-45,45v120c0,24.899,20.099,45,45,45h422c24.901,0,45-20.101,45-45v-120
	C512,286.894,491.901,266.795,467,266.795z"/>
<path style="fill:#495A79;" d="M60,266.795v135c0,8.399,6.599,15,15,15h362c8.401,0,15-6.601,15-15v-135H60z"/>
<path style="fill:#66728B;" d="M512,311.795v120c0,24.899-20.099,45-45,45H255v-90h167v-105c0-8.401,6.599-15,15-15h30
	C491.901,266.795,512,286.894,512,311.795z"/>
<path style="fill:#42516D;" d="M452,266.795v135c0,8.399-6.599,15-15,15H255v-150H452z"/>
<g>
	<circle style="fill:#51DAE6;" cx="377" cy="341.8" r="15"/>
	<circle style="fill:#51DAE6;" cx="317" cy="341.8" r="15"/>
</g>
<g>
	<path style="fill:#5AF1FF;" d="M270,341.795c0,8.399-6.599,15-15,15s-15-6.601-15-15c0-8.401,6.599-15,15-15
		S270,333.394,270,341.795z"/>
	<path style="fill:#5AF1FF;" d="M195,356.795h-60c-19.773,0-19.854-30,0-30h60C214.773,326.795,214.854,356.795,195,356.795z"/>
</g>
<path style="fill:#51DAE6;" d="M255,356.795v-30c8.401,0,15,6.599,15,15C270,350.194,263.401,356.795,255,356.795z"/>
<g>
</g>
<g>
</g>
<g>
</g>
<g>
</g>
<g>
</g>
<g>
</g>
<g>
</g>
<g>
</g>
<g>
</g>
<g>
</g>
<g>
</g>
<g>
</g>
<g>
</g>
<g>
</g>
<g>
</g>
</svg>
