<?xml version="1.0" encoding="iso-8859-1"?>
<!-- Generator: Adobe Illustrator 19.0.0, SVG Export Plug-In . SVG Version: 6.00 Build 0)  -->
<svg version="1.1" id="Layer_1" xmlns="http://www.w3.org/2000/svg" xmlns:xlink="http://www.w3.org/1999/xlink" x="0px" y="0px"
	 viewBox="0 0 511.997 511.997" style="enable-background:new 0 0 511.997 511.997;" xml:space="preserve">
<path style="fill:#656D78;" d="M511.997,479.997c0,11.78-9.562,21.327-21.344,21.327H21.328C9.547,501.324,0,491.777,0,479.997
	V373.327c0-11.781,9.547-21.328,21.328-21.328h469.325c11.781,0,21.344,9.547,21.344,21.328L511.997,479.997L511.997,479.997z"/>
<g>
	<path style="fill:#CCD1D9;" d="M319.999,426.669c0,5.891-4.781,10.656-10.672,10.656s-10.672-4.766-10.672-10.656
		s4.781-10.672,10.672-10.672S319.999,420.779,319.999,426.669z"/>
	<path style="fill:#CCD1D9;" d="M255.999,426.669c0,5.891-4.781,10.656-10.672,10.656s-10.672-4.766-10.672-10.656
		s4.781-10.672,10.672-10.672S255.999,420.779,255.999,426.669z"/>
	<path style="fill:#CCD1D9;" d="M383.997,426.669c0,5.891-4.781,10.656-10.672,10.656s-10.672-4.766-10.672-10.656
		s4.781-10.672,10.672-10.672S383.997,420.779,383.997,426.669z"/>
	<path style="fill:#CCD1D9;" d="M447.997,426.669c0,5.891-4.781,10.656-10.672,10.656s-10.672-4.766-10.672-10.656
		s4.781-10.672,10.672-10.672S447.997,420.779,447.997,426.669z"/>
</g>
<path style="fill:#48CFAD;" d="M95.999,447.997c-11.765,0-21.343-9.578-21.343-21.328c0-11.766,9.578-21.344,21.343-21.344
	c11.75,0,21.328,9.578,21.328,21.344C117.328,438.419,107.749,447.997,95.999,447.997z"/>
<path style="fill:#37BC9B;" d="M95.999,394.671c-17.687,0-32,14.327-32,31.999s14.312,32,32,32c17.672,0,32-14.328,32-32
	S113.671,394.671,95.999,394.671z M95.999,437.326c-5.875,0-10.671-4.781-10.671-10.656c0-5.891,4.796-10.672,10.671-10.672
	s10.656,4.781,10.656,10.672C106.656,432.544,101.874,437.326,95.999,437.326z"/>
<rect x="245.329" y="138.669" style="fill:#434A54;" width="21.328" height="213.33"/>
<path style="fill:#5D9CEC;" d="M255.999,170.672c-11.766,0-21.344-9.578-21.344-21.344S244.233,128,255.999,128
	c11.75,0,21.328,9.562,21.328,21.328S267.749,170.672,255.999,170.672z"/>
<path style="fill:#4A89DC;" d="M255.999,117.328c-17.688,0-32,14.328-32,32s14.312,32,32,32c17.672,0,32-14.328,32-32
	S273.671,117.328,255.999,117.328z M255.999,160c-5.875,0-10.672-4.781-10.672-10.672c0-5.875,4.797-10.656,10.672-10.656
	s10.656,4.781,10.656,10.656C266.655,155.219,261.874,160,255.999,160z"/>
<g>
	<path style="fill:#5D9CEC;" d="M328.468,93.609c-5.891,0-10.656,4.766-10.656,10.656c0,2.266,0.688,4.359,1.906,6.078
		c7.125,11.609,10.938,25.016,10.938,38.984c0,13.984-3.812,27.375-10.938,39c-1.219,1.719-1.906,3.812-1.906,6.062
		c0,5.89,4.766,10.671,10.656,10.671c3.797,0,7.125-1.984,9.016-4.969c9.203-14.718,14.514-32.124,14.514-50.765
		s-5.311-36.031-14.514-50.766C335.593,95.578,332.265,93.609,328.468,93.609z"/>
	<path style="fill:#5D9CEC;" d="M387.45,58.109l-0.016,0.016c-1.875-3.016-5.219-5.016-9.031-5.016
		c-5.891,0-10.656,4.766-10.656,10.656c0,2.25,0.688,4.328,1.875,6.047c5.594,7.969,10.328,16.516,14.156,25.547
		c7.219,17.094,10.875,35.25,10.875,53.969c0,18.734-3.656,36.891-10.875,53.968c-3.828,9.047-8.562,17.594-14.156,25.547
		c-1.188,1.719-1.875,3.812-1.875,6.047c0,5.891,4.766,10.672,10.656,10.672c3.812,0,7.156-2,9.031-5.016h0.016
		c17.984-25.875,28.547-57.312,28.547-91.218S405.435,83.984,387.45,58.109z"/>
	<path style="fill:#5D9CEC;" d="M435.45,15.251l-0.016,0.016c-1.938-2.781-5.141-4.594-8.781-4.594
		c-5.875,0-10.656,4.766-10.656,10.656c0,2.484,0.844,4.765,2.25,6.562c0.047,0.062,0.094,0.109,0.141,0.156
		c9.797,13.078,17.953,27.25,24.359,42.406c10.562,24.969,15.906,51.516,15.906,78.875c0,27.375-5.344,53.905-15.906,78.89
		c-6.406,15.156-14.562,29.328-24.359,42.391c-0.047,0.062-0.094,0.109-0.141,0.156c-1.406,1.812-2.25,4.094-2.25,6.562
		c0,5.891,4.781,10.672,10.656,10.672c3.641,0,6.844-1.828,8.781-4.594l0.016,0.016c27.984-37.391,44.547-83.797,44.547-134.093
		C479.997,99.047,463.435,52.641,435.45,15.251z"/>
	<path style="fill:#5D9CEC;" d="M183.53,93.609c5.875,0,10.656,4.766,10.656,10.656c0,2.266-0.703,4.359-1.906,6.078
		c-7.141,11.609-10.953,25.016-10.953,38.984c0,13.984,3.812,27.375,10.953,39c1.203,1.719,1.906,3.812,1.906,6.062
		c0,5.89-4.781,10.671-10.656,10.671c-3.812,0-7.125-1.984-9.031-4.969c-9.187-14.718-14.5-32.124-14.5-50.765
		s5.312-36.031,14.5-50.766C176.405,95.578,179.718,93.609,183.53,93.609z"/>
	<path style="fill:#5D9CEC;" d="M124.531,58.109l0.016,0.016c1.891-3.016,5.234-5.016,9.047-5.016
		c5.875,0,10.656,4.766,10.656,10.656c0,2.25-0.688,4.328-1.875,6.047c-5.594,7.969-10.328,16.516-14.156,25.547
		c-7.219,17.094-10.891,35.25-10.891,53.969c0,18.734,3.672,36.891,10.891,53.968c3.828,9.047,8.562,17.594,14.156,25.547
		c1.188,1.719,1.875,3.812,1.875,6.047c0,5.891-4.781,10.672-10.656,10.672c-3.812,0-7.156-2-9.047-5.016h-0.016
		c-17.985-25.875-28.532-57.312-28.532-91.218S106.546,83.984,124.531,58.109z"/>
	<path style="fill:#5D9CEC;" d="M76.531,15.251l0.031,0.016c1.922-2.781,5.125-4.594,8.766-4.594c5.89,0,10.671,4.765,10.671,10.656
		c0,2.484-0.844,4.765-2.266,6.562c-0.047,0.062-0.078,0.109-0.141,0.156c-9.781,13.078-17.937,27.25-24.343,42.406
		c-10.562,24.969-15.922,51.516-15.922,78.875c0,27.375,5.359,53.905,15.922,78.89c6.406,15.156,14.562,29.328,24.343,42.391
		c0.062,0.062,0.094,0.109,0.141,0.156c1.422,1.812,2.266,4.094,2.266,6.562c0,5.891-4.781,10.672-10.671,10.672
		c-3.641,0-6.844-1.828-8.766-4.594l-0.031,0.016C48.562,246.03,32,199.624,32,149.328C32,99.047,48.562,52.641,76.531,15.251z"/>
</g>
<g>
</g>
<g>
</g>
<g>
</g>
<g>
</g>
<g>
</g>
<g>
</g>
<g>
</g>
<g>
</g>
<g>
</g>
<g>
</g>
<g>
</g>
<g>
</g>
<g>
</g>
<g>
</g>
<g>
</g>
</svg>
