<?xml version="1.0" encoding="iso-8859-1"?>
<!-- Generator: Adobe Illustrator 19.0.0, SVG Export Plug-In . SVG Version: 6.00 Build 0)  -->
<svg version="1.1" id="Capa_1" xmlns="http://www.w3.org/2000/svg" xmlns:xlink="http://www.w3.org/1999/xlink" x="0px" y="0px"
	 viewBox="0 0 512 512" style="enable-background:new 0 0 512 512;" xml:space="preserve">
<path style="fill:#1689FC;" d="M392,316.9v120c0,49.2-99.101,75-196,75S0,486.1,0,436.9v-120H392z"/>
<path style="fill:#136EF1;" d="M392,316.9v120c0,49.2-99.101,75-196,75v-195H392z"/>
<path style="fill:#17ACE8;" d="M392,196.9v120c0,49.2-99.101,75-196,75S0,366.1,0,316.9v-120H392z"/>
<g>
	<path style="fill:#1689FC;" d="M392,196.9v120c0,49.2-99.101,75-196,75v-195H392z"/>
	<path style="fill:#1689FC;" d="M392,73.9v123c0,49.2-99.101,75-196,75S0,246.1,0,196.9v-123C0,73.9,392,73.9,392,73.9z"/>
</g>
<path style="fill:#136EF1;" d="M392,73.9v123c0,49.2-99.101,75-196,75v-198C196,73.9,392,73.9,392,73.9z"/>
<path style="fill:#17ACE8;" d="M196,0.1C98.5,0.1,0,24.7,0,73.9s99.101,75,196,75s196-25.8,196-75S293.5,0.1,196,0.1z"/>
<path style="fill:#1689FC;" d="M392,73.9c0,49.2-99.101,75-196,75V0.1C293.5,0.1,392,24.7,392,73.9z"/>
<path style="fill:#FFCC33;" d="M407,271.9h-60c-8.291,0-15,6.709-15,15c0,8.276-6.724,15-15,15c-8.291,0-15,6.709-15,15v55.137
	c0,6.735,0.685,13.33,1.575,19.863l8.283,15h83.679l11.463-15l15-13.036v-92.845L407,271.9z"/>
<path style="fill:#FE9923;" d="M510.425,391.9c0.89-6.533,1.575-13.129,1.575-19.863V316.9c0-8.291-6.709-15-15-15
	c-8.276,0-15-6.724-15-15c0-8.291-6.709-15-15-15h-60v120l12.543,15h80.824L510.425,391.9z"/>
<path style="fill:#FFCC33;" d="M407,511.124c1.597,0,3.201,0.515,4.746,0c53.58-17.851,91.219-64.431,98.679-119.224H407l-15,10.587
	v97.767L407,511.124z"/>
<path style="fill:#FE9923;" d="M402.254,511.124c1.558,0.518,3.148,0.002,4.746,0V391.9H303.575
	C311.034,446.693,348.674,493.273,402.254,511.124z"/>
<g>
</g>
<g>
</g>
<g>
</g>
<g>
</g>
<g>
</g>
<g>
</g>
<g>
</g>
<g>
</g>
<g>
</g>
<g>
</g>
<g>
</g>
<g>
</g>
<g>
</g>
<g>
</g>
<g>
</g>
</svg>
